/* XPM */
static char *_5316_5e67b744b46973083d31e0bbd470e45a8e7f2c390c38404ad0d82d4b30aaf75a[] = {
/* columns rows colors chars-per-pixel */
"64 64 2 1 ",
"  c black",
". c #E10C0C",
/* pixels */
"                                                                ",
"                                                                ",
"                                                                ",
"                                                                ",
"                                                                ",
"        ..............................................          ",
"        ..............................................          ",
"        ..............................................          ",
"        ....                                                    ",
"        ....                                                    ",
"        ....                                                    ",
"        ....                                                    ",
"        ....                                                    ",
"        ....                                                    ",
"        ....                                                    ",
"        ....                                                    ",
"        ....                                                    ",
"        ....                                                    ",
"        ....                                                    ",
"        ....                                                    ",
"        ....                                                    ",
"        ....                                                    ",
"        ....                                                    ",
"        ..............................................          ",
"        ..............................................          ",
"        ..............................................          ",
"        ..............................................          ",
"        .....                                                   ",
"        .....                                                   ",
"        .....                                                   ",
"        .....                                                   ",
"        .....                                                   ",
"        .....                                                   ",
"        .....                                                   ",
"        .....                                                   ",
"        .....                                                   ",
"        .....                                                   ",
"        .....                                                   ",
"        .....                                                   ",
"        .....                                                   ",
"        .....                                                   ",
"        .....                                                   ",
"        .....                                                   ",
"        .....                                                   ",
"        .....                                                   ",
"        .....                                                   ",
"        .....                                                   ",
"        .....                                                   ",
"        .....                                                   ",
"        .....                                                   ",
"        ..............................................          ",
"        ..............................................          ",
"        ..............................................          ",
"        ..............................................          ",
"                                                                ",
"                                                                ",
"                                                                ",
"                                                                ",
"                                                                ",
"                                                                ",
"                                                                ",
"                                                                ",
"                                                                ",
"                                                                "
};
