/* XPM */
static char *_785_5424357477df1c72d0558ae0daad2ffdc702d8222ed7f340bea745766ef6e0a8[] = {
/* columns rows colors chars-per-pixel */
"64 64 2 1 ",
"  c black",
". c #E10C0C",
/* pixels */
"                                                                ",
"                                                                ",
"                                                                ",
"                                                                ",
"                                                                ",
"   ...              ..                                          ",
"   ....             ..                                          ",
"   .....            ..                                          ",
"   .. ...           ..                                          ",
"   ..  ...          ..                                          ",
"   ..   ..          ..                                          ",
"   ..    ..         ..                                          ",
"   ..    ...        ..                                          ",
"   ..     ...       ..                                          ",
"   ..      ...      ..                                          ",
"   ..       ...     ..                                          ",
"   ..        ..     ..                                          ",
"   ..        ...    ..                                          ",
"   ..         ...   ..                                          ",
"   ..          ..   ..                                          ",
"   ..          ...  ..                                          ",
"   ..           ... ..                                          ",
"   ..            .. ..                                          ",
"   ..            .....                                          ",
"   ..             ....                                          ",
"   ..              ...                                          ",
"   ..              ...                                          ",
"   ..               ..                                          ",
"                                                                ",
"                                                                ",
"                                                                ",
"                                                                ",
"                                                                ",
"                                                                ",
"                                                                ",
"                                                                ",
"                                                                ",
"                                                                ",
"                                                                ",
"                                                                ",
"                                                                ",
"                                                                ",
"                                                                ",
"                                                                ",
"                                                                ",
"                                                                ",
"                                                                ",
"                                                                ",
"                                                                ",
"                                                                ",
"                                                                ",
"                                                                ",
"                                                                ",
"                                                                ",
"                                                                ",
"                                                                ",
"                                                                ",
"                                                                ",
"                                                                ",
"                                                                ",
"                                                                ",
"                                                                ",
"                                                                ",
"                                                                "
};
