/* XPM */
static char *_0119_dad48bb1394a847312de3f51497c0a829bfc2257487c5c2cec1351c28703f00a[] = {
/* columns rows colors chars-per-pixel */
"64 64 2 1 ",
"  c black",
". c #E10C0C",
/* pixels */
"                                                                ",
"                                                                ",
"                                                                ",
"                                                                ",
"                                                                ",
"                                                                ",
"                                                                ",
"                                                                ",
"                                                                ",
"                                                                ",
"                                                                ",
"                        .................                       ",
"                     ....................                       ",
"                    .....................                       ",
"                   ........                                     ",
"                   .....                                        ",
"                   ....                                         ",
"                  ....                                          ",
"                  ....                                          ",
"                  ....                                          ",
"                  ...                                           ",
"                 ....                                           ",
"                 ....                                           ",
"                 ....                                           ",
"                  ....                                          ",
"                  .....                                         ",
"                  ......                                        ",
"                   .......                                      ",
"                    .......                                     ",
"                      ........                                  ",
"                       .........                                ",
"                         ..........                             ",
"                           ..........                           ",
"                              ........                          ",
"                                ......                          ",
"                                  .....                         ",
"                                   ....                         ",
"                                   ....                         ",
"                                    ...                         ",
"                                    ...                         ",
"                                    ...                         ",
"                                    ...                         ",
"                                    ...                         ",
"                                   ....                         ",
"                                   ....                         ",
"                                  .....                         ",
"                                 .....                          ",
"                                ......                          ",
"                              .......                           ",
"                             ......                             ",
"                           .......                              ",
"          ...........   .........                               ",
"          ......................                                ",
"          ....................                                  ",
"                  .........                                     ",
"                                                                ",
"                                                                ",
"                                                                ",
"                                                                ",
"                                                                ",
"                                                                ",
"                                                                ",
"                                                                ",
"                                                                "
};
