/* XPM */
static char *_037_33002125ea5fd50fdee8f15e794d3156c08e33fa4886b4cafeadc9e5469c9c96[] = {
/* columns rows colors chars-per-pixel */
"64 64 2 1 ",
"  c black",
". c #E10C0C",
/* pixels */
"                                                                ",
"                                                                ",
"                                                                ",
"                                                                ",
"                                                                ",
"                                                                ",
"                                                        ...     ",
"                                                       ....     ",
"                             ....                      ....     ",
"      ...                    ....                     .....     ",
"      ....                   ....                     ....      ",
"      ....                   .....                    ....      ",
"      .....                  .....                    ....      ",
"       ....                 ......                   .....      ",
"       ....                 .......                  .....      ",
"        ....                .......                  ....       ",
"        ....                .......                  ....       ",
"        ....                .......                 .....       ",
"         ...                ........                ....        ",
"        .....              .........                ....        ",
"        .....              ....  ....               ....        ",
"          ...              ...   ....              ....         ",
"         .....             ...    ...              ....         ",
"         .....             ...    ...              ....         ",
"         ......            ...    ....             ....         ",
"          .....            ...    ....             ...          ",
"          ......          ....     ...            ....          ",
"          ......          ....     ....           ....          ",
"           .....          ...      ....           ....          ",
"           .....          ...       ...          .....          ",
"           ......         ...       ....         ....           ",
"            .....         ...       ....         ....           ",
"            ......        ...        ...         ....           ",
"            .......       ...        ....       .....           ",
"             ......       ...        ....       ....            ",
"             ......      ....        ....       ....            ",
"             .......     ....         ...      .....            ",
"              ......     ....         ....     .....            ",
"              .......    ...          ....    .....             ",
"              .......    ...           ...    .....             ",
"               ......    ...           ...    .....             ",
"               .......   ...           ....   ....              ",
"                ......  ....           ....   ....              ",
"                ......  ....            .... .....              ",
"                ....... ...             ..........              ",
"                 ..........              ........               ",
"                  .........              ........               ",
"                  .........              .......                ",
"                   ........               ......                ",
"                   ........               .....                 ",
"                   .......                .....                 ",
"                    ......                 ....                 ",
"                    ......                 ....                 ",
"                    ......                 ....                 ",
"                     ....                   ...                 ",
"                     ....                                       ",
"                                                                ",
"                                                                ",
"                                                                ",
"                                                                ",
"                                                                ",
"                                                                ",
"                                                                ",
"                                                                "
};
